<svg xmlns="http://www.w3.org/2000/svg" width="400" height="400"><defs/><path d="M151 63l-6 1.6c-22.9 6-47.6 24.7-62.8 47.4-4.7 7-4.6 7.4 2 17.2 4.9 7 4.6 11.3-1 17.3-3.3 3.5-6.5 5-12.7 5.5-6 .6-7.2 1-9.1 3-7.1 7-6.5 38.2 1 53.2 7.6 15.4 20.1 29.2 40 44.1 17.2 13 21.6 20.7 21.1 37.1-.1 6.4.1 6.6 4.2 3.1 18.9-16.2 19.4-38.9 1.5-60.4-8.5-10.3-10-17.8-4.1-19.7 8.6-2.9 29.2 16 39.4 35.8a81.6 81.6 0 014.2 40.4l-1.1 8c-.3 2.1-.7 4.6-1 5.6-1.5 4.8 1.7 11 7.1 13.8l4.7 2.8c2.5 1.6 10.6 2.4 11 1.1 2.2-7.7 4.1-78.8 2.4-89.5-1.4-8.8-2.8-12.6-5.4-15.3-1.6-1.5-2.6-1.4-7.5 1-10.8 5.3-17.6 1.5-23.2-13-5.3-13.8-5.4-14.2-5.2-16 .3-2.7 1.6-2.5 7.7 1.1 20.6 12.4 27.6 14 32.8 7.2 3.3-4.4 3.3-4.6 3.7-58.8.4-53.5.5-53-2.7-51.4-1.4.7-12.8 17.2-15.9 22.9-.6 1.1-.7 2.9-1 13.1-.5 25.4-6.3 36.3-19.1 36.1-19.8-.2-35.1-23.4-29.6-44.9 4.5-18 11.4-28.5 29.1-45 2.6-2.3 2.9-3 1.9-4-.6-.5-5-.8-6.4-.4m95 .5c-1.3 1-.9 1.6 5.3 7.2 29.6 27 35.5 65 12.5 80.5-16.2 10.8-27.6 7.7-33.2-8.9-2-5.9-2.2-8.1-2.5-20.9-.2-13.6.4-11.7-8.7-25.5-7.8-11.7-9.2-13-10.6-9.4-.6 1.4-.2 91.6.4 99.4.6 7 2.9 10.8 7.9 13 4.3 1.9 12.3-1.2 28.7-11 6.9-4.2 8.7-3 6 3.8a177 177 0 00-2 5.3c-7 20.4-13.4 25.1-25.5 19-5-2.5-5.7-2.5-7.7-.3-4.3 4.7-5.5 11.1-5.7 30.9-.3 27.2 1.3 67.6 3 73.3.3 1.3 8.4.5 10.7-1a69 69 0 014.3-2.5c6.9-3.6 9.1-8.5 7.5-16.4-.7-3.6-1.8-10.7-2.4-16.6a64.5 64.5 0 019.6-43.4c12.8-18.8 28.6-31 35.6-27.3 5 2.6 2.8 10-6 20.5a45.2 45.2 0 00-12.2 30.2v5.6l2 5a50 50 0 0014.9 20.5c2 1.2 2 1 2.2-7.9l.2-8 1.4-3.8c3.4-9.3 6.3-12.8 17.5-21.1 29.1-21.8 42.2-39.1 46.7-61.9 1-5.4 1-24.8 0-28.6-2.3-8-4.5-10.2-10.6-10.9-8.7-.9-12-2.1-15.5-6-5.8-6.4-5.6-11 1.1-19.8 5.1-6.8 4.9-8.4-2.8-18.7-15.4-20.5-38.6-37.6-57.5-42.6l-6-1.6c-3.6-1-7.4-1-8.6 0" fill="#c24a48" fill-rule="evenodd"/></svg>